MoBL_ARMS_module2_4_allmuscles_wrist_states		
version=1		
nRows=291		
nColumns=3		
inDegrees=yes		
		
# SIMM Motion File Header:		
name MoBL_ARMS_module2_4_allmuscles_wrist_states		
datacolumns 3		
datarows 291		
otherdata 1		
range 1.637436739 2.132932267		
endheader		
time	deviation	flexion
1.637436739	-7.890059078	-22.15978872
1.639135269	-7.889038101	-22.47598605
1.640833799	-7.887868736	-22.79190261
1.642532329	-7.88651516	-23.1076008
1.644230859	-7.884953229	-23.42314875
1.645929389	-7.88317629	-23.73861051
1.647627919	-7.881201389	-24.05404027
1.649326449	-7.879074022	-24.36947422
1.651024979	-7.876863721	-24.68492694
1.651970196	-7.875627077	-24.86048155
1.65239209	-7.875075704	-24.9388419
1.652532431	-7.874891353	-24.96490869
1.652672772	-7.874707716	-24.99097067
1.653374477	-7.873809423	-25.12117114
1.654773392	-7.872124292	-25.3802091
1.656172307	-7.870601649	-25.63857969
1.659667669	-7.86743619	-26.28159877
1.663163031	-7.864826312	-26.92128854
1.664564804	-7.863830514	-27.17690223
1.665966577	-7.862824102	-27.43200917
1.668272089	-7.861106916	-27.85057949
1.669828844	-7.8599041	-28.13258229
1.671702672	-7.858442765	-28.47144352
1.6735765	-7.85702095	-28.80975638
1.675108503	-7.855930239	-29.08599831
1.676640507	-7.85493384	-29.36196277
1.678593524	-7.853827184	-29.71341439
1.68028909	-7.853030175	-30.01824825
1.681984656	-7.852387529	-30.32282572
1.683680222	-7.851879758	-30.62716311
1.685375788	-7.851501977	-30.9311661
1.687071353	-7.851323599	-31.23442386
1.688766919	-7.851413001	-31.53647059
1.690462485	-7.851780445	-31.83699479
1.692158051	-7.852381043	-32.13585296
1.693853617	-7.853136606	-32.43302717
1.695549183	-7.853965942	-32.72856754
1.697244749	-7.85478884	-33.02258531
1.698940315	-7.855541914	-33.31522196
1.700635881	-7.856185167	-33.60663388
1.702331447	-7.856704311	-33.89697776
1.704027012	-7.857111895	-34.18639138
1.705722578	-7.857438829	-34.47499531
1.707418144	-7.857713135	-34.7628915
1.70911371	-7.857975524	-35.05015186
1.710809276	-7.858270001	-35.3368198
1.712504842	-7.858627312	-35.62291834
1.714200408	-7.859058188	-35.90845787
1.715895974	-7.859551577	-36.19343648
1.71759154	-7.860078358	-36.47785415
1.719287106	-7.860596917	-36.76171237
1.720982672	-7.861061226	-37.04500969
1.722678237	-7.861430835	-37.32774028
1.724373803	-7.861681164	-37.60988492
1.726069369	-7.861806768	-37.89141813
1.727764935	-7.861818035	-38.17231443
1.729460501	-7.861740444	-38.45253965
1.731156067	-7.861608833	-38.73205168
1.732851633	-7.861457954	-39.0108082
1.734547199	-7.861313323	-39.28877582
1.736242765	-7.861191475	-39.56592004
1.737938331	-7.861093133	-39.84221935
1.739633896	-7.861007701	-40.11765838
1.741329462	-7.860918937	-40.39222094
1.743025028	-7.860807941	-40.66588904
1.744720594	-7.860655781	-40.93864244
1.74641616	-7.860446371	-41.21045788
1.748111726	-7.860170039	-41.48130876
1.749807292	-7.859828629	-41.75116126
1.751502858	-7.859433985	-42.01997692
1.753198424	-7.858997063	-42.28772624
1.75489399	-7.858531951	-42.55437623
1.756589556	-7.858052199	-42.81988887
1.758285121	-7.857568561	-43.08422334
1.759980687	-7.857110357	-43.34731212
1.760885821	-7.856879626	-43.48722473
1.761790955	-7.856641027	-43.62677631
1.763474426	-7.856148196	-43.88537155
1.767561709	-7.854686624	-44.50777042
1.768746684	-7.854209951	-44.68669919
1.770261078	-7.853588231	-44.91432336
1.773154949	-7.852421316	-45.34590598
1.774689843	-7.851840399	-45.57294562
1.776224737	-7.85129682	-45.79864432
1.778171531	-7.850659491	-46.08293206
1.779867726	-7.850134611	-46.32878725
1.781563921	-7.849621274	-46.57289713
1.783260115	-7.849098226	-46.81523624
1.78495631	-7.848542809	-47.05578994
1.786424343	-7.848027478	-47.26251623
1.787892376	-7.847481246	-47.46784354
1.790199967	-7.846572413	-47.78779041
1.791871805	-7.845898476	-48.01744054
1.793543643	-7.845233043	-48.24527778
1.79521548	-7.844589788	-48.47130023
1.796887318	-7.843973969	-48.69551318
1.798559156	-7.843382114	-48.91792687
1.800230994	-7.842803253	-49.13855473
1.801902832	-7.842221954	-49.35741026
1.80357467	-7.84162281	-49.57450544
1.805246508	-7.840995677	-49.78984733
1.807264353	-7.840195266	-50.04742777
1.808811938	-7.839548737	-50.24326048
1.810359522	-7.838889929	-50.43759727
1.811907107	-7.838238249	-50.6304299
1.814117532	-7.837332983	-50.90324224
1.815718376	-7.83670015	-51.09890447
1.817319219	-7.836084247	-51.29296216
1.818920063	-7.835479288	-51.48541878
1.820961949	-7.834714859	-51.72857484
1.822571996	-7.834112165	-51.91846732
1.824182043	-7.833501854	-52.10674502
1.825792091	-7.832884042	-52.29340712
1.827789175	-7.832115829	-52.52269655
1.829410945	-7.83150484	-52.70706487
1.831032715	-7.830918434	-52.88979435
1.832654485	-7.830367309	-53.0708903
1.834611792	-7.829761094	-53.28729076
1.836241494	-7.829311032	-53.46568126
1.837871196	-7.828911553	-53.64246333
1.839500898	-7.828560644	-53.81765609
1.8411306	-7.828254751	-53.9912795
1.843176002	-7.827927464	-54.20699675
1.844687934	-7.8277199	-54.36490118
1.846199865	-7.827536649	-54.52149793
1.848153725	-7.827324625	-54.72194585
1.850107586	-7.827123077	-54.9202432
1.851547171	-7.8269696	-55.06497584
1.852986757	-7.826803664	-55.20854514
1.855003666	-7.826539742	-55.40772676
1.856818354	-7.826265075	-55.58496484
1.858633042	-7.825955906	-55.76031377
1.860215069	-7.825663532	-55.9116217
1.861797097	-7.825357463	-56.06145645
1.863379124	-7.825040736	-56.20979624
1.865437262	-7.824600616	-56.40050044
1.867061615	-7.82420568	-56.54915326
1.868685968	-7.823734892	-56.6961218
1.870310321	-7.823150325	-56.84134872
1.871762723	-7.822507626	-56.96966511
1.873903966	-7.821311869	-57.15605771
1.875591056	-7.820148519	-57.30045946
1.877278147	-7.818806961	-57.44257909
1.878965238	-7.817323474	-57.58231375
1.880652328	-7.815744984	-57.71957018
1.882339419	-7.814119277	-57.85426882
1.88402651	-7.81248638	-57.98634593
1.8857136	-7.810841611	-58.11576324
1.887400691	-7.809186794	-58.24248385
1.889087781	-7.807526321	-58.36647441
1.890774872	-7.805847804	-58.48770453
1.892461963	-7.804125885	-58.60614424
1.894149053	-7.802327497	-58.72176275
1.895836144	-7.800418204	-58.83452722
1.897523235	-7.798370017	-58.94440138
1.899210325	-7.796168218	-59.05134507
1.900897416	-7.793815811	-59.15531777
1.901824324	-7.792473333	-59.21115947
1.902751232	-7.791093954	-59.26608715
1.905741013	-7.78644093	-59.43694944
1.907477993	-7.783617511	-59.53171263
1.908201536	-7.782414876	-59.57018773
1.908925079	-7.781201126	-59.60806196
1.911556121	-7.776569557	-59.7405859
1.913899492	-7.771855712	-59.85143073
1.915296705	-7.768626094	-59.91405967
1.916693918	-7.765008521	-59.97394634
1.918906897	-7.758432915	-60.06284031
1.920736495	-7.752272748	-60.1304422
1.922566093	-7.745608264	-60.19234494
1.924119609	-7.739687073	-60.24019099
1.925673125	-7.733632192	-60.28351309
1.92758807	-7.726087428	-60.33044761
1.929283465	-7.719367413	-60.36583874
1.930978861	-7.712580168	-60.3952678
1.932674257	-7.70565494	-60.41858577
1.934369653	-7.698508116	-60.43566107
1.936065049	-7.691065777	-60.44637909
1.937760445	-7.68328413	-60.45064204
1.939455841	-7.675163969	-60.44837039
1.941151236	-7.666751132	-60.43950595
1.942846632	-7.658123312	-60.42401469
1.944542028	-7.649370624	-60.40188844
1.946237424	-7.640578061	-60.37314488
1.94793282	-7.631808679	-60.33782515
1.949628216	-7.623088605	-60.29598986
1.951323612	-7.614405775	-60.24771091
1.953019008	-7.605713418	-60.19306635
1.954714403	-7.596938179	-60.13213568
1.956409799	-7.587993039	-60.06499439
1.958105195	-7.578792532	-59.99173976
1.959800591	-7.569281236	-59.91241785
1.961495987	-7.559436315	-59.82706115
1.963191383	-7.549269394	-59.73570063
1.964886779	-7.538823589	-59.6383641
1.966582174	-7.528161635	-59.53508393
1.96827757	-7.517353107	-59.42589609
1.969972966	-7.506461218	-59.31084683
1.971668362	-7.495534305	-59.18999786
1.972946952	-7.487289207	-59.09507153
1.974225542	-7.479019652	-58.99694676
1.977474091	-7.457873729	-58.73358998
1.979367749	-7.445471174	-58.57103174
1.980985235	-7.434834364	-58.42708942
1.982602722	-7.424156466	-58.27859681
1.984220208	-7.413436974	-58.12569511
1.985837694	-7.402676439	-57.96853252
1.986986313	-7.395018603	-57.85442062
1.988134932	-7.387363329	-57.7382808
1.992056378	-7.361218592	-57.32724919
1.995977824	-7.334924149	-56.89545596
1.997426815	-7.325129432	-56.73108929
1.999437702	-7.311426938	-56.49896548
2.001219759	-7.299140787	-56.28953739
2.003001816	-7.286679804	-56.07678039
2.004783873	-7.274003338	-55.86083673
2.006332356	-7.262781434	-55.670709
2.007880839	-7.251335452	-55.47834914
2.009796815	-7.236816748	-55.23733891
2.011497886	-7.223547946	-55.02064688
2.013198957	-7.209864262	-54.80144113
2.014900028	-7.195693036	-54.57973252
2.016601099	-7.180948855	-54.35550668
2.01830217	-7.165547886	-54.12873382
2.020003241	-7.149420913	-53.89937925
2.021704312	-7.132517673	-53.66740881
2.023405383	-7.114801712	-53.43278808
2.025106454	-7.096241948	-53.19548103
2.026807525	-7.076805171	-52.95544761
2.028508597	-7.056449248	-52.7126378
2.030209668	-7.035113324	-52.46698889
2.031910739	-7.012718776	-52.21842713
2.03361181	-6.989178571	-51.96687763
2.035312881	-6.964404754	-51.712271
2.037013952	-6.938315195	-51.45454524
2.038715023	-6.910841845	-51.19364995
2.040416094	-6.881929045	-50.92955592
2.042117165	-6.851529704	-50.66225723
2.043818236	-6.819597573	-50.39177189
2.045519308	-6.786081389	-50.11812977
2.047220379	-6.750927176	-49.84136316
2.04892145	-6.71406761	-49.56151795
2.050622521	-6.675418115	-49.27865303
2.052323592	-6.634890854	-48.99283125
2.054024663	-6.592392184	-48.70412093
2.055725734	-6.547825713	-48.41260884
2.057426805	-6.501094622	-48.11838917
2.059127876	-6.452110838	-47.82150342
2.060828947	-6.40078919	-47.52201217
2.062530018	-6.347049924	-47.21998297
2.06423109	-6.290819539	-46.91548966
2.065932161	-6.232033109	-46.60861043
2.067633232	-6.170636707	-46.29942521
2.069334303	-6.106591464	-45.98801094
2.071035374	-6.039874295	-45.67444223
2.072736445	-5.97047419	-45.35879434
2.07424879	-5.906515184	-45.07648236
2.075761135	-5.840481549	-44.79259445
2.077957621	-5.740927431	-44.37755961
2.079505956	-5.668160627	-44.0831448
2.081054292	-5.593281414	-43.78725632
2.083015911	-5.495423865	-43.41035369
2.084737165	-5.406844134	-43.07784485
2.086458418	-5.315767231	-42.74374306
2.088179672	-5.222228686	-42.40812648
2.089900926	-5.126263195	-42.07107604
2.091622179	-5.027906536	-41.73266922
2.093343433	-4.927193692	-41.3929847
2.095064687	-4.824159522	-41.05210173
2.09678594	-4.718838513	-40.71009972
2.098507194	-4.611264672	-40.36705779
2.100228448	-4.501471408	-40.02305432
2.101949701	-4.389494774	-39.67816626
2.103670955	-4.275368046	-39.33246883
2.105392209	-4.159119233	-38.98604077
2.107113462	-4.040779409	-38.63895236
2.108834716	-3.920381403	-38.2912681
2.11055597	-3.797958011	-37.94305043
2.112277223	-3.673540926	-37.59436113
2.113998477	-3.547161609	-37.24526043
2.115719731	-3.418851586	-36.89580645
2.117440984	-3.288643357	-36.54605054
2.119162238	-3.156569302	-36.19604226
2.120883492	-3.022660866	-35.84582939
2.122604745	-2.886950951	-35.49545297
2.124325999	-2.749473816	-35.144946
2.126047253	-2.610265902	-34.79433532
2.127768506	-2.469367518	-34.44364116
2.12948976	-2.326823723	-34.0928774
2.131211014	-2.182683597	-33.74205158
2.132932267	-2.036998524	-33.39116585
